<?xml version="1.0" encoding="UTF-8" standalone="no"?>
<!-- Created with Inkscape (http://www.inkscape.org/) -->

<svg
   width="381.04901"
   height="381.052"
   viewBox="0 0 100.81921 100.82001"
   version="1.1"
   id="svg1"
   xmlns="http://www.w3.org/2000/svg"
   xmlns:svg="http://www.w3.org/2000/svg">
  <defs
     id="defs1" />
  <g
     id="layer1">
    <path
       d="m 79.082049,37.982371 c -8.28305,-0.473821 -16.11664,3.526776 -20.61416,10.34972 0.27051,-1.019892 0.57379,-2.030963 0.90899,-3.032373 0.23061,-0.688889 0.75274,-1.268564 1.47061,-1.632751 8.18854,-4.156018 13.13972,-12.763773 12.61424,-21.929359 C 72.790479,10.031952 63.083019,0.49251789 51.361825,0.01953669 45.008082,-0.23711651 38.991223,2.0420985 34.416411,6.4358675 29.839499,10.831736 27.319172,16.746522 27.319172,23.091023 c 0,8.743852 4.859189,16.633313 12.681442,20.589806 0.698551,0.353685 1.208497,0.921179 1.435326,1.598727 0.337724,1.00771 0.643103,2.025922 0.915298,3.052115 C 37.853716,41.509567 30.017182,37.507289 21.73749,37.982371 10.031414,38.653618 0.4919793,48.361495 0.0194183,60.082692 c -0.255813,6.352482 2.022982,12.370601 6.416751,16.944994 4.3958687,4.576912 10.3106547,7.097238 16.6547357,7.097238 7.851236,0 15.024925,-3.926248 19.269155,-10.397606 -2.112454,7.965912 -6.204204,15.379451 -11.906022,21.426553 -0.919919,0.97579 -1.171952,2.40523 -0.640163,3.63683 0.531789,1.231599 1.744066,2.029279 3.0853,2.029279 h 5.368715 24.283339 5.36872 c 1.34123,0 2.55393,-0.79768 3.0853,-2.029279 0.53137,-1.2316 0.27976,-2.66062 -0.64016,-3.63683 -5.70182,-6.047102 -9.79315,-13.461061 -11.90603,-21.426553 4.24423,6.471358 11.41834,10.397606 19.26958,10.397606 6.34408,0 12.25887,-2.520326 16.65474,-7.097238 4.39376,-4.574813 6.672561,-10.592512 6.416331,-16.944994 C 100.32756,48.361495 90.787709,38.653618 79.082049,37.982371 Z M 34.039622,23.091443 c 0,-4.497942 1.786912,-8.691345 5.031832,-11.807729 3.078158,-2.9567615 7.080016,-4.5622095 11.333907,-4.5622095 0.22767,0 0.456179,0.0046 0.685109,0.01386 8.306159,0.335203 15.185389,7.0942975 15.660889,15.3874315 0.37259,6.499921 -3.13865,12.603731 -8.9459,15.551253 -2.301898,1.168171 -4.007319,3.118484 -4.802482,5.492211 -1.289147,3.851479 -2.160759,7.839895 -2.593835,11.866116 -0.433917,-4.03336 -1.30805,-8.028917 -2.601397,-11.888377 -0.792643,-2.364066 -2.487982,-4.303457 -4.774338,-5.459867 -5.547238,-2.806383 -8.993785,-8.398147 -8.993785,-14.592689 z M 60.795409,94.099111 H 40.023297 c 5.726601,-7.937343 9.34705,-17.302455 10.385845,-27.043516 1.039214,9.741061 4.659663,19.105753 10.386267,27.043516 z m 28.74096,-21.727308 c -3.11681,3.24492 -7.31021,5.031831 -11.80773,5.031831 -6.16976,0 -11.75144,-3.425963 -14.56581,-8.941277 -1.19001,-2.332562 -3.16007,-4.051845 -5.54681,-4.840707 -0.98587,-0.325542 -2.013745,-0.635122 -3.05506,-0.919079 -0.291938,-0.07939 -0.588916,-0.118455 -0.884214,-0.118455 -0.780461,0 -1.547481,0.272195 -2.15992,0.785922 -0.557832,0.46794 -0.940502,1.096341 -1.106843,1.785651 -0.166342,-0.68931 -0.549011,-1.317711 -1.106844,-1.785651 -0.844309,-0.708212 -1.981816,-0.957304 -3.044554,-0.667467 -1.041735,0.284377 -2.069608,0.593537 -3.055475,0.919499 -2.385909,0.788862 -4.355964,2.508145 -5.546398,4.840707 -2.814785,5.515314 -8.396047,8.941277 -14.565806,8.941277 -4.497522,0 -8.690925,-1.786911 -11.807729,-5.031831 C 8.1684733,69.129403 6.5529443,64.861231 6.7348283,60.353627 7.0696113,52.047472 13.828706,45.167821 22.12226,44.69232 c 6.486059,-0.371329 12.585249,3.128985 15.537811,8.919014 1.186234,2.327521 3.150408,4.043024 5.530016,4.830626 0.988808,0.327222 2.020882,0.638062 3.067237,0.923699 1.064418,0.290258 2.202345,0.04032 3.046234,-0.668726 0.557833,-0.468781 0.940082,-1.098443 1.106004,-1.788592 0.165921,0.690149 0.548171,1.319811 1.106003,1.788171 0.844309,0.709472 1.982656,0.959405 3.046234,0.669147 1.045516,-0.285217 2.07675,-0.595637 3.06556,-0.922859 2.38045,-0.787602 4.34546,-2.503945 5.53253,-4.832306 2.95215,-5.789189 9.05049,-9.290343 15.53697,-8.917754 8.29356,0.475501 15.05265,7.354732 15.38744,15.661307 0.18188,4.507184 -1.43323,8.775356 -4.54793,12.017756 z"
       id="path1"
       style="stroke-width:0.420054" />
  </g>
</svg>
