<?xml version="1.0" encoding="UTF-8" standalone="no"?>
<!-- Created with Inkscape (http://www.inkscape.org/) -->

<svg
   width="381.026"
   height="381.026"
   viewBox="0 0 100.81313 100.81313"
   version="1.1"
   id="svg1"
   xmlns="http://www.w3.org/2000/svg"
   xmlns:svg="http://www.w3.org/2000/svg">
  <defs
     id="defs1" />
  <g
     id="layer1">
    <path
       d="m 1.383659,53.124273 c 15.283259,11.11506 35.19006,31.02186 46.30511,46.3047 0.63219,0.869507 1.64242,1.384077 2.71776,1.384077 1.07534,0 2.08515,-0.51457 2.71775,-1.384077 11.11506,-15.28284 31.02185,-35.18964 46.30511,-46.3047 0.869521,-0.63218 1.383661,-1.64241 1.383661,-2.71775 0,-1.07534 -0.51456,-2.08515 -1.383661,-2.71775 C 84.146129,36.574133 64.238919,16.666913 53.124279,1.384079 52.492099,0.514566 51.481869,0 50.406529,0 49.331189,0 48.321379,0.514566 47.688769,1.384079 36.573719,16.666913 16.666918,36.573713 1.383659,47.688773 0.514147,48.320953 0,49.331183 0,50.406523 c 0,1.07534 0.514147,2.08557 1.383659,2.71775 z M 50.406529,8.952199 c 10.93989,14.115084 27.33882,30.514014 41.45432,41.454324 -14.1155,10.94032 -30.51443,27.33924 -41.45432,41.45433 -10.9399,-14.11509 -27.338823,-30.51401 -41.45433,-41.45433 14.115087,-10.94031 30.51401,-27.33924 41.45433,-41.454324 z"
       id="path3"
       style="stroke-width:0.420054" />
  </g>
</svg>
