<?xml version="1.0" encoding="UTF-8" standalone="no"?>
<!-- Created with Inkscape (http://www.inkscape.org/) -->

<svg
   width="368.28699"
   height="393.72501"
   viewBox="0 0 97.442596 104.17307"
   version="1.1"
   id="svg1"
   xmlns="http://www.w3.org/2000/svg"
   xmlns:svg="http://www.w3.org/2000/svg">
  <defs
     id="defs1" />
  <g
     id="layer1">
    <path
       d="m 50.368721,0.43129125 c -1.022832,-0.575055 -2.271234,-0.575055 -3.294067,0 C 45.152486,1.5120913 0,27.263104 0,58.74534 c 0,15.515547 12.66674,28.138187 28.236056,28.138187 3.135285,0 6.1832,-0.50071 9.067714,-1.4765 -2.289717,4.7903 -5.313688,9.2307 -8.950939,13.10612 -0.916979,0.97705 -1.165651,2.405233 -0.633442,3.634733 0.532209,1.2295 1.744065,2.02508 3.083619,2.02508 h 36.098633 c 1.339554,0 2.551411,-0.796 3.083619,-2.02508 0.532629,-1.2295 0.283537,-2.657683 -0.633442,-3.634733 -3.610787,-3.84728 -6.619637,-8.25533 -8.904312,-13.01034 2.797142,0.91194 5.741303,1.3803 8.759394,1.3803 15.569315,0 28.235635,-12.62264 28.235635,-28.138187 C 97.442955,27.263104 52.29089,1.5120913 50.368721,0.43129125 Z M 69.20732,80.162657 c -4.735273,0 -9.232375,-1.51346 -13.005304,-4.37571 -1.154309,-0.87539 -2.739175,-0.9132 -3.933389,-0.0932 -1.194215,0.81994 -1.728524,2.31324 -1.325692,3.70488 1.872603,6.46673 4.883973,12.60121 8.835844,18.05393 H 37.92713 c 4.006479,-5.52749 7.044312,-11.7527 8.911454,-18.31815 0.398211,-1.40046 -0.15038,-2.89795 -1.359716,-3.7095 -1.208917,-0.81154 -2.803023,-0.7519 -3.948091,0.14744 -3.823755,3.00297 -8.42083,4.59078 -13.294721,4.59078 -11.863596,0 -21.515186,-9.60791 -21.515186,-21.417317 0,-14.157933 11.673732,-27.559348 21.466879,-36.30866 8.457795,-7.556359 17.027745,-13.0418487 20.533939,-15.1719447 3.506194,2.130096 12.076143,7.6155857 20.533938,15.1719447 17.742257,15.851592 21.466459,28.493968 21.466459,36.30866 0,11.808987 -9.651589,21.416897 -21.514765,21.416897 z"
       id="path4"
       style="stroke-width:0.420054" />
  </g>
</svg>
