<?xml version="1.0" encoding="UTF-8" standalone="no"?>
<!-- Created with Inkscape (http://www.inkscape.org/) -->

<svg
   width="380.71799"
   height="355.62399"
   viewBox="0 0 100.73163 94.092178"
   version="1.1"
   id="svg1"
   xmlns="http://www.w3.org/2000/svg"
   xmlns:svg="http://www.w3.org/2000/svg">
  <defs
     id="defs1" />
  <g
     id="layer1">
    <path
       d="M 71.59365,0 C 63.4929,0 55.83279,3.51376 50.36536,9.57892 44.89793,3.51376 37.23824,0 29.137072,0 13.071252,0 0,13.62195 0,30.36615 c 0,14.4713 8.26457,29.56007 24.56436,44.84627 11.88418,11.14572 23.59782,18.12073 24.09096,18.41182 0.52759,0.3121 1.11902,0.46794 1.71046,0.46794 0.59144,0 1.18287,-0.15584 1.71046,-0.46794 C 52.56897,93.33315 64.2826,86.35814 76.1672,75.21242 92.46699,59.92622 100.73156,44.83745 100.73156,30.36615 100.73156,13.62195 87.66031,0 71.59365,0 Z M 50.36578,86.77064 C 42.09449,81.46997 6.72087,57.22149 6.72087,30.36615 c 0,-13.03806 10.056102,-23.64528 22.416622,-23.64528 7.335828,0 14.222198,3.80864 18.421068,10.18842 0.62168,0.94428 1.67643,1.51304 2.80722,1.51304 1.13079,0 2.18554,-0.56876 2.80722,-1.51304 4.19887,-6.37978 11.08524,-10.18842 18.42107,-10.18842 12.36052,0 22.41662,10.60722 22.41662,23.64528 0,26.85534 -35.37446,51.10424 -43.64491,56.40449 z"
       id="path2"
       style="stroke-width:0.420054" />
  </g>
</svg>
